<svg xmlns="http://www.w3.org/2000/svg" width="20" height="21" viewBox="0 0 20 21" fill="none">
                              <g clip-path="url(#clip0_13815_783)">
                                <path d="M10.1968 20.5297C10.1306 20.5297 10.0644 20.5297 9.99771 20.5294C8.43002 20.5332 6.9815 20.4934 5.57281 20.4077C4.28131 20.3291 3.10242 19.8828 2.16339 19.1171C1.25732 18.3782 0.63858 17.3792 0.324402 16.1482C0.0509644 15.0764 0.0364685 14.0243 0.022583 13.0067C0.0125122 12.2766 0.00213623 11.4114 0 10.5316C0.00213623 9.64808 0.0125122 8.7829 0.022583 8.05277C0.0364685 7.03531 0.0509644 5.98322 0.324402 4.91129C0.63858 3.68021 1.25732 2.68122 2.16339 1.94239C3.10242 1.1767 4.28131 0.730382 5.57297 0.651799C6.98166 0.566198 8.43048 0.52622 10.0015 0.530034C11.5697 0.526677 13.0177 0.566198 14.4264 0.651799C15.7179 0.730382 16.8968 1.1767 17.8358 1.94239C18.7421 2.68122 19.3607 3.68021 19.6748 4.91129C19.9483 5.98307 19.9628 7.03531 19.9767 8.05277C19.9867 8.7829 19.9972 9.64808 19.9992 10.5279V10.5316C19.9972 11.4114 19.9867 12.2766 19.9767 13.0067C19.9628 14.0241 19.9484 15.0762 19.6748 16.1482C19.3607 17.3792 18.7421 18.3782 17.8358 19.1171C16.8968 19.8828 15.7179 20.3291 14.4264 20.4077C13.0774 20.4897 11.6916 20.5297 10.1968 20.5297ZM9.99771 19.2907C11.5399 19.2944 12.9559 19.2553 14.3315 19.1717C15.3081 19.1123 16.46 18.4718 17.1537 17.9061C17.7948 17.3832 18.2364 16.6618 18.4661 15.7618C18.6937 14.8696 18.7069 13.9117 18.7195 12.9853C18.7294 12.2601 18.7398 11.401 18.7419 10.5297C18.7398 9.6583 18.7294 8.79938 18.7195 8.07413C18.7069 7.14777 18.6937 6.18982 18.4661 5.29749C18.2364 4.39753 17.7948 3.67609 17.1537 3.15317C16.46 2.58768 15.3081 1.96588 14.3315 1.90652C12.9559 1.82275 11.5399 1.78415 10.0014 1.78751C8.45947 1.78384 7.0433 1.82734 5.66772 1.91111C4.69116 1.97047 3.64605 2.38928 2.95239 2.95477C2.31121 3.47769 1.75088 4.39753 1.52123 5.29749C1.29357 6.18982 1.28045 7.14762 1.26779 8.07413C1.25787 8.79999 1.24749 9.65952 1.24535 10.5316C1.24749 11.3998 1.25787 12.2595 1.26779 12.9853C1.28045 13.9117 1.29357 14.8696 1.52123 15.7618C1.75088 16.6618 2.19247 17.3832 2.83364 17.9061C3.52731 18.4716 4.69116 19.1123 5.66772 19.1717C7.0433 19.2555 8.45978 19.2945 9.99771 19.2907ZM9.96048 15.4125C7.26822 15.4125 5.07767 13.2221 5.07767 10.5297C5.07767 7.83732 7.26822 5.64692 9.96048 5.64692C12.6529 5.64692 14.8433 7.83732 14.8433 10.5297C14.8433 13.2221 12.6529 15.4125 9.96048 15.4125ZM10.0014 6.78386C7.80598 6.78386 6.26095 8.32889 6.26095 10.5279C6.26095 12.3586 7.6453 14.2906 9.97978 14.2906C11.8107 14.2906 13.7142 12.5561 13.7142 10.5279C13.7142 8.69715 12.3175 6.78386 10.0014 6.78386ZM15.3902 4.08442C14.743 4.08442 14.2183 4.60901 14.2183 5.25629C14.2183 5.90357 14.743 6.42817 15.3902 6.42817C16.0374 6.42817 16.562 5.90357 16.562 5.25629C16.562 4.60901 16.0374 4.08442 15.3902 4.08442Z" fill="#464646"/>
                              </g>
                              <defs>
                                <clipPath id="clip0_13815_783">
                                  <rect width="20" height="20" fill="white" transform="translate(0 0.529785)"/>
                                </clipPath>
                              </defs>
                            </svg>