<svg xmlns="http://www.w3.org/2000/svg" width="20" height="21" viewBox="0 0 20 21" fill="none">
                              <g clip-path="url(#clip0_13815_786)">
                                <path d="M14.6875 5.21729C15.0109 5.21729 15.2734 4.95479 15.2734 4.63135V1.11572C15.2734 0.792285 15.0109 0.529785 14.6875 0.529785H11.1718C8.91013 0.529785 7.07028 2.36963 7.07028 4.63135V7.56104H5.31247C4.98903 7.56104 4.72653 7.82353 4.72653 8.14697V11.6626C4.72653 11.986 4.98903 12.2485 5.31247 12.2485H7.07028V19.9438C7.07028 20.2673 7.33278 20.5298 7.65622 20.5298H11.1718C11.4953 20.5298 11.7578 20.2673 11.7578 19.9438V12.2485H14.1015C14.3879 12.2485 14.6324 12.0415 14.6797 11.7591L15.2656 8.24346C15.2937 8.07353 15.2461 7.89971 15.1347 7.76807C15.0234 7.63682 14.8597 7.56104 14.6875 7.56104H11.7578V5.21729H14.6875ZM11.1718 8.73291H13.9957L13.605 11.0767H11.1718C10.8484 11.0767 10.5859 11.3392 10.5859 11.6626V19.3579H8.24216V11.6626C8.24216 11.3392 7.97966 11.0767 7.65622 11.0767H5.89841V8.73291H7.65622C7.97966 8.73291 8.24216 8.47041 8.24216 8.14697V4.63135C8.24216 3.01611 9.55661 1.70166 11.1718 1.70166H14.1015V4.04541H11.1718C10.8484 4.04541 10.5859 4.30791 10.5859 4.63135V8.14697C10.5859 8.47041 10.8484 8.73291 11.1718 8.73291Z" fill="#464646"/>
                              </g>
                              <defs>
                                <clipPath id="clip0_13815_786">
                                  <rect width="20" height="20" fill="white" transform="translate(0 0.529785)"/>
                                </clipPath>
                              </defs>
                            </svg>