<svg xmlns="http://www.w3.org/2000/svg" width="20" height="20" viewBox="0 0 20 20" fill="none">
                                <g clip-path="url(#clip0_16100_1894)">
                                <path d="M10.1301 9.95738V10.2699H10.4426H15.142C15.3652 10.2699 15.5462 10.4509 15.5462 10.6741C15.5462 10.8974 15.3653 11.0784 15.142 11.0784H9.72587C9.50263 11.0784 9.32163 10.8974 9.32163 10.6741V4.82053C9.32163 4.59728 9.50263 4.41628 9.72587 4.41628C9.94919 4.41628 10.1301 4.59726 10.1301 4.82053V9.95738ZM0.312744 10.1247C0.312744 4.78345 4.65878 0.4375 10.0001 0.4375C15.3414 0.4375 19.6874 4.78344 19.6874 10.1247C19.6874 15.4663 15.3414 19.8125 10.0001 19.8125C4.6588 19.8125 0.312744 15.4664 0.312744 10.1247ZM1.12123 10.1247C1.12123 15.021 5.10402 19.004 10.0001 19.004C14.8962 19.004 18.8789 15.021 18.8789 10.1247C18.8789 5.22869 14.8962 1.24599 10.0001 1.24599C5.10404 1.24599 1.12123 5.22868 1.12123 10.1247Z" fill="#1F1F1F" stroke="#1F1F1F" stroke-width="0.625"/>
                                </g>
                                <defs>
                                <clipPath id="clip0_16100_1894">
                                <rect width="20" height="20" fill="white"/>
                                </clipPath>
                                </defs>
                              </svg>