<svg xmlns="http://www.w3.org/2000/svg" width="21" height="21" viewBox="0 0 21 21" fill="none">
                                  <g clip-path="url(#clip0_13815_821)">
                                    <path d="M18.5756 3.49805H2.09119C1.11998 3.49805 0.333374 4.28953 0.333374 5.25586V15.8027C0.333374 16.7748 1.12576 17.5605 2.09119 17.5605H18.5756C19.5386 17.5605 20.3334 16.7781 20.3334 15.8027V5.25586C20.3334 4.29125 19.5499 3.49805 18.5756 3.49805ZM18.3294 4.66992C17.9702 5.02715 11.7897 11.1751 11.5763 11.3874C11.2443 11.7194 10.8029 11.9022 10.3334 11.9022C9.86384 11.9022 9.42244 11.7194 9.08931 11.3863C8.9458 11.2435 2.83349 5.16344 2.33736 4.66992H18.3294ZM1.50525 15.5642V5.49512L6.56923 10.5324L1.50525 15.5642ZM2.3381 16.3887L7.40009 11.3589L8.26177 12.216C8.81513 12.7694 9.55083 13.0741 10.3334 13.0741C11.1159 13.0741 11.8516 12.7694 12.4039 12.2171L13.2667 11.3589L18.3286 16.3887H2.3381ZM19.1615 15.5642L14.0975 10.5324L19.1615 5.49512V15.5642Z" fill="#464646"/>
                                  </g>
                                  <defs>
                                    <clipPath id="clip0_13815_821">
                                      <rect width="20" height="20" fill="white" transform="translate(0.333374 0.529297)"/>
                                    </clipPath>
                                  </defs>
                                </svg>