<svg xmlns="http://www.w3.org/2000/svg" width="41" height="32" viewBox="0 0 41 32" fill="none">
                            <path d="M0.61644 0H16.8356C16.8356 6.46575 16.7808 10.5753 16.726 12.3836C16.4521 19.2877 15.3562 24.274 13.3836 27.3973C11.411 30.4658 7.9589 32 2.9726 32L1.60274 26.1918C7.0274 26.1918 8.45205 22.7397 8.45205 16H0.61644V0ZM24.7808 0H41C41 6.46575 40.9452 10.5753 40.8904 12.3836C40.6164 19.2877 39.5205 24.274 37.5479 27.3973C35.5753 30.4658 32.1233 32 27.137 32L25.7671 26.1918C31.1918 26.1918 32.6164 22.7397 32.6164 16H24.7808V0Z" fill="#EAEAEC"/>
                          </svg>