<svg xmlns="http://www.w3.org/2000/svg" width="20" height="20" viewBox="0 0 20 20" fill="none">
                              <path d="M4.70306 6.27594H0.9375C0.613861 6.27594 0.351562 6.53839 0.351562 6.86188V19.4141C0.351562 19.7377 0.613861 20 0.9375 20H4.70306C5.0267 20 5.289 19.7377 5.289 19.4141V6.86188C5.289 6.53839 5.0267 6.27594 4.70306 6.27594ZM4.11713 18.8281H1.52344V7.44781H4.11713V18.8281Z" fill="#123114"/>
                              <path d="M2.82043 0C1.45905 0 0.351562 1.10748 0.351562 2.46857C0.351562 3.82996 1.45905 4.93729 2.82043 4.93729C4.18167 4.93729 5.289 3.8298 5.289 2.46857C5.289 1.10748 4.18167 0 2.82043 0ZM2.82043 3.76541C2.10526 3.76541 1.52344 3.18375 1.52344 2.46857C1.52344 1.75354 2.10526 1.17188 2.82043 1.17188C3.53546 1.17188 4.11713 1.75354 4.11713 2.46857C4.11713 3.18375 3.53546 3.76541 2.82043 3.76541Z" fill="#123114"/>
                              <path d="M14.1176 6.19308C13.2269 6.19308 12.3491 6.40778 11.563 6.80939C11.5363 6.51047 11.2852 6.27594 10.9793 6.27594H7.21344C6.88995 6.27594 6.6275 6.53839 6.6275 6.86188V19.4141C6.6275 19.7377 6.88995 20 7.21344 20H10.9793C11.3029 20 11.5652 19.7377 11.5652 19.4141V12.5104C11.5652 11.6223 12.2879 10.8998 13.176 10.8998C14.064 10.8998 14.7864 11.6223 14.7864 12.5104V19.4141C14.7864 19.7377 15.0488 20 15.3723 20H19.138C19.4617 20 19.724 19.7377 19.724 19.4141V11.7995C19.724 8.70804 17.209 6.19308 14.1176 6.19308ZM18.5521 18.8281H15.9584V12.5104C15.9584 10.9761 14.7102 9.72794 13.1761 9.72794C11.6417 9.72794 10.3934 10.9761 10.3934 12.5104V18.8281H7.79953V7.44781H10.3934V7.88071C10.3934 8.10608 10.5226 8.31146 10.7259 8.40897C10.929 8.50647 11.17 8.4787 11.346 8.33786C12.1394 7.70142 13.098 7.36496 14.1176 7.36496C16.5628 7.36496 18.5521 9.35425 18.5521 11.7995V18.8281Z" fill="#123114"/>
                            </svg>