<svg xmlns="http://www.w3.org/2000/svg" width="21" height="21" viewBox="0 0 21 21" fill="none">
                                  <g clip-path="url(#clip0_13815_816)">
                                    <path d="M16.5823 16.0597L16.1652 15.3632C15.4151 14.1264 14.3798 12.7069 13.0219 12.7069C12.7703 12.7069 12.5211 12.7575 12.2745 12.86L11.5457 13.1725C11.4791 13.2001 11.4144 13.2315 11.3459 13.2648C11.1594 13.3555 10.9479 13.4583 10.7303 13.4583C10.1936 13.4583 9.57172 12.7598 8.97953 11.4916C8.39834 10.2469 8.43542 9.59438 8.56883 9.26603C8.71604 8.90377 9.05837 8.74889 9.42613 8.6097C9.47728 8.59031 9.52346 8.57272 9.56838 8.55423L10.3064 8.24348C12.2292 7.43939 11.5139 4.62944 11.2794 3.70819L11.0805 2.9161C10.9104 2.26329 10.4596 0.529297 8.96419 0.529297C8.68736 0.529297 8.39203 0.593793 8.08669 0.721071C7.88634 0.800631 5.12934 1.92602 4.13051 3.90312C2.93674 6.25646 3.15747 9.41225 4.78593 13.2808C6.40221 17.1543 8.49811 19.5235 11.0154 20.3225C11.4472 20.4597 11.9353 20.5292 12.466 20.5292H12.4663C14.2035 20.5292 15.9184 19.7901 16.0576 19.7287C16.6565 19.475 17.0437 19.0894 17.2082 18.5825C17.4871 17.723 17.0193 16.7812 16.5823 16.0597ZM15.9211 18.1649C15.8829 18.2827 15.7499 18.3902 15.5262 18.4844C15.5225 18.486 15.518 18.4879 15.5142 18.4896C15.4987 18.4965 13.9464 19.1763 12.4659 19.1762C12.0743 19.1762 11.724 19.1281 11.4249 19.033C9.30408 18.3598 7.49062 16.2493 6.03373 12.7579C4.56601 9.2709 4.33148 6.49766 5.33762 4.51425C6.11888 2.96788 8.56477 1.98691 8.58876 1.97753C8.59363 1.97554 8.59841 1.97365 8.6032 1.97166C8.74247 1.91321 8.86731 1.88236 8.96419 1.88236C9.26232 1.88236 9.53365 2.34475 9.76945 3.25103L9.96745 4.03978C10.3947 5.71758 10.3296 6.76701 9.78271 6.99577L9.04817 7.30517C9.01895 7.31726 8.98476 7.32998 8.94705 7.34432C8.54132 7.49794 7.697 7.81744 7.31517 8.75665C6.96869 9.6089 7.11212 10.6908 7.7532 12.0643C8.61664 13.9128 9.59039 14.8114 10.7301 14.8114C11.2591 14.8114 11.6837 14.605 11.9373 14.4818C11.9841 14.4591 12.0258 14.4383 12.0707 14.4197L12.8007 14.1067C12.876 14.0753 12.9483 14.06 13.0218 14.06C13.3731 14.06 14.0031 14.4079 15.0063 16.0618L15.4232 16.7578C15.9369 17.606 15.9775 17.9911 15.9211 18.1649Z" fill="#464646"/>
                                  </g>
                                  <defs>
                                    <clipPath id="clip0_13815_816">
                                      <rect width="20" height="20" fill="white" transform="translate(0.333374 0.529297)"/>
                                    </clipPath>
                                  </defs>
                                </svg>